<!-- Generator: Adobe Illustrator 17.0.1, SVG Export Plug-In  -->
<svg version="1.2" baseProfile="tiny"
	 xmlns="http://www.w3.org/2000/svg" xmlns:xlink="http://www.w3.org/1999/xlink" xmlns:a="http://ns.adobe.com/AdobeSVGViewerExtensions/3.0/"
	 x="0px" y="0px" width="200px" height="48.191px" viewBox="0 0 200 48.191" xml:space="preserve">
<defs>
</defs>
<g>
	<path d="M42.169,18.186c0.689-1.644,1.909-2.492,3.552-2.492c1.273,0,2.227,0.636,2.757,1.962c2.068-1.75,3.393-2.333,5.302-2.333
		c3.234,0,5.673,2.068,5.673,4.825c0,0.848-0.212,1.962-0.53,2.757l-1.644,4.03c-0.583,1.432-0.742,1.803-1.379,3.075
		c0.742-0.106,0.902-0.106,1.75-0.106h1.538c2.386,0,3.341,0.636,3.341,2.333c0,0.954-0.583,2.068-1.485,2.704
		c-0.742,0.583-1.326,0.689-2.969,0.689h-5.408c-2.121,0-3.765-1.485-3.765-3.34c0-0.742,0.212-1.485,0.69-2.757l2.333-5.673
		c0.265-0.583,0.371-1.114,0.371-1.485c0-0.742-0.848-1.378-1.856-1.378c-1.644,0-3.34,1.538-4.348,3.977l-3.075,7.529
		c-1.061,2.651-2.174,3.659-4.136,3.659c-1.485,0-2.651-1.061-2.651-2.439c0-0.796,0.106-1.167,0.689-2.545L42.169,18.186z"/>
	<path d="M84.107,23.754c0,4.295-2.386,8.801-5.674,10.711c-1.484,0.901-3.022,1.166-6.097,1.166c-3.181,0-4.401-0.265-5.62-1.114
		c-2.068-1.538-3.34-4.189-3.34-7.052c0-6.522,5.567-12.142,11.93-12.142C80.448,15.323,84.107,18.823,84.107,23.754z
		 M69.685,27.094c0,1.909,1.114,2.916,3.234,2.916c1.273,0,1.856-0.159,2.598-0.689c1.272-0.901,2.386-3.34,2.386-5.249
		c0-1.856-1.273-3.181-3.022-3.181C72.177,20.891,69.685,23.86,69.685,27.094z"/>
	<path d="M92.641,35.631c-4.348,0-7.37-3.393-7.37-8.271c0-6.522,5.196-12.036,11.294-12.036c4.136,0,6.946,2.545,6.946,6.203
		c0,2.545-1.485,4.348-3.499,4.348c-1.379,0-2.386-0.901-2.386-2.121l0.053-1.326c0-0.954-0.742-1.697-1.697-1.697
		c-2.386,0-4.613,2.81-4.613,5.779c0,1.379,0.636,2.545,1.591,2.916c0.583,0.265,2.174,0.477,3.393,0.477h4.931
		c2.439,0,3.341,0.636,3.341,2.333c0,0.954-0.583,2.068-1.485,2.704c-0.742,0.583-1.326,0.689-2.969,0.689H92.641z"/>
	<path d="M125.459,30.912c0.53,0.902,0.742,1.379,0.742,2.015c0,1.538-1.697,3.022-3.446,3.022c-0.902,0-1.432-0.371-2.227-1.591
		l-3.288-5.037c-1.22-2.015-1.485-2.439-2.492-4.242h-0.16c-0.477,1.644-0.636,1.962-1.378,3.818l-1.432,3.605
		c-1.06,2.651-2.227,3.659-4.136,3.659c-1.484,0-2.651-1.061-2.651-2.439c0-0.848,0.053-1.114,0.689-2.545L116.87,3.605
		C117.93,1.008,119.044,0,120.953,0c1.485,0,2.651,1.06,2.651,2.439c0,0.795-0.053,1.06-0.689,2.545l-3.765,9.385
		c-1.432,3.447-1.802,4.295-3.393,7.476l0.213,0.159c1.325-1.326,1.749-1.697,3.234-2.81l2.916-2.121
		c1.538-1.166,2.227-1.485,3.128-1.485c1.432,0,2.545,1.114,2.545,2.545c0,1.379-0.637,2.227-2.492,3.606l-3.871,2.863
		L125.459,30.912z"/>
	<path d="M148.841,23.754c0,4.295-2.386,8.801-5.674,10.711c-1.485,0.901-3.022,1.166-6.098,1.166c-3.181,0-4.4-0.265-5.62-1.114
		c-2.068-1.538-3.341-4.189-3.341-7.052c0-6.522,5.567-12.142,11.93-12.142C145.182,15.323,148.841,18.823,148.841,23.754z
		 M134.419,27.094c0,1.909,1.114,2.916,3.235,2.916c1.273,0,1.856-0.159,2.598-0.689c1.273-0.901,2.386-3.34,2.386-5.249
		c0-1.856-1.272-3.181-3.022-3.181C136.911,20.891,134.419,23.86,134.419,27.094z"/>
	<path d="M165.381,35.631c-1.061,0-2.121-0.795-2.545-1.856c-0.901,1.22-2.174,1.856-3.552,1.856h-4.241
		c-0.637,0-2.121-0.477-2.811-0.902c-1.166-0.742-2.121-2.545-2.121-4.135c0-0.955,0.212-1.856,0.689-2.969l3.552-8.695
		c1.061-2.598,2.174-3.605,4.083-3.605c1.484,0,2.651,1.06,2.651,2.439c0,0.742-0.106,1.061-0.689,2.545l-2.757,6.681
		c-0.689,1.856-0.584,1.485-0.584,1.697c0,0.742,0.584,1.273,1.432,1.273c0.796,0,1.644-0.106,1.962-0.212
		c1.061-0.424,2.015-1.326,2.386-2.227l3.341-8.218c1.06-2.598,2.174-3.606,4.136-3.606c1.485,0,2.651,1.061,2.651,2.439
		c0,0.742-0.053,1.061-0.689,2.545l-2.545,6.257c-0.584,1.432-0.742,1.803-1.378,3.075c0.742-0.106,1.008-0.106,1.644-0.106h1.538
		c2.333,0,3.287,0.69,3.287,2.333c0,1.008-0.584,2.068-1.485,2.704c-0.742,0.583-1.325,0.689-2.916,0.689H165.381z"/>
	<path d="M184.307,26.935c-0.583,1.432-0.742,1.75-1.378,3.075c0.689-0.106,0.848-0.106,1.644-0.106h1.432
		c2.386,0,3.288,0.636,3.288,2.333c0,0.954-0.584,2.068-1.485,2.704c-0.742,0.583-1.326,0.689-2.916,0.689h-4.666
		c-2.598,0-4.295-1.326-4.295-3.393c0-1.008,0.053-1.22,0.954-3.287l2.28-5.673c0.425-0.954,0.53-1.166,0.955-2.015
		c-2.28,0.053-3.447-0.636-3.447-2.174c0-1.007,0.583-2.121,1.485-2.757c0.742-0.53,1.272-0.636,2.916-0.636h1.22l1.378-3.446
		c1.06-2.598,2.174-3.605,4.083-3.605c1.485,0,2.651,1.06,2.651,2.386c0,0.742-0.212,1.644-0.689,2.598l-0.477,1.007
		c-0.265,0.583-0.318,0.69-0.636,1.167c0.264-0.106,0.318-0.106,0.583-0.106h0.372c2.386,0,3.34,0.636,3.34,2.28
		c0,1.007-0.584,2.121-1.485,2.757c-0.742,0.53-1.326,0.636-2.916,0.636h-1.909L184.307,26.935z"/>
	<path d="M200,32.768c0,1.962-1.644,3.605-3.659,3.605c-1.961,0-3.605-1.644-3.605-3.605c0-2.015,1.644-3.659,3.605-3.659
		C198.356,29.109,200,30.753,200,32.768z"/>
</g>
<g>
	<path d="M34.524,39.697c0.545,1.416,1.362,1.96,3.213,1.96h152.007c1.634,0,2.015,0.055,2.668,0.436
		c0.653,0.381,1.144,1.307,1.144,2.233c0,1.089-0.708,2.396-1.688,3.104c-0.871,0.599-1.525,0.762-3.376,0.762H36.212
		c-4.683,0-6.044-0.926-7.569-5.064l-4.901-13.123c-1.089-2.886-1.307-3.648-2.123-6.48H21.4c-0.871,2.777-1.089,3.43-2.341,6.371
		l-3.104,7.733c-1.198,2.94-2.45,4.029-4.628,4.029c-1.634,0-2.941-1.198-2.941-2.723c0-0.871,0.109-1.198,0.762-2.832l6.97-17.153
		c1.144-2.886,1.579-4.356,1.579-5.554c0-1.634-1.743-3.104-3.757-3.104c-3.757,0-7.133,3.648-7.133,7.624
		c0,1.47,0.653,2.668,1.851,3.43c0.218,0.163,0.436,0.273,0.708,0.381L11,22.38c0.653,0.272,1.198,1.198,1.198,2.178
		c0,1.96-1.743,3.485-3.921,3.485C3.703,28.043,0,23.742,0,18.405c0-7.95,6.807-14.702,14.812-14.702
		c5.717,0,10.128,3.921,10.128,8.985c0,1.906-0.436,3.921-1.416,6.262l-0.436,1.143c-0.109,0.218-0.272,0.545-0.599,0.98
		c-0.109,0.218-0.327,0.545-0.599,0.98l0.272,0.163c2.777-3.376,3.594-4.302,6.698-7.515l7.841-8.223
		c1.797-1.906,2.669-2.45,4.084-2.45c1.743,0,3.049,1.252,3.049,3.049c0,1.198-0.49,2.124-2.178,3.866L28.861,24.286L34.524,39.697z
		"/>
</g>
</svg>
